# xmcd
#
# Track frame offsets:
#       150
#       12721
#       21544
#       32310
#       44851
#       58444
#       72672
#       83773
#       95051
#       106505
#       114630
#       123594
#       133085
#       146788
#       161020
#       172200
#       180529
#       194358
#
# Disc length: 2856 seconds
#
# Revision: 2
# Processed by: cddbd v1.5.1PL0 Copyright (c) Steve Scherf et al.
# Submitted via: MusiCat 1.1
#
DISCID=180b2612
DTITLE=Moby Grape - Crosstalk - The Best of Moby Grape
DYEAR=1900
DGENRE=
TTITLE0=Hey Grandma
TTITLE1=Fall On You
TTITLE2=8.05
TTITLE3=Come In The Morning
TTITLE4=Omaha
TTITLE5=Rounder (inst)
TTITLE6=Changes
TTITLE7=Murder In My Heart For The Judge
TTITLE8=Bitter Wind
TTITLE9=Cant Be So bad
TTITLE10=He
TTITLE11=Motorcyle irene
TTITLE12=Ooh Mama Ooh
TTITLE13=Aint That A Shame
TTITLE14=Captain Nemo
TTITLE15=Whats To Choose
TTITLE16=Going Nowhere
TTITLE17=I Am Not Willing
EXTD=\n\n
EXTT0=
EXTT1=
EXTT2=
EXTT3=
EXTT4=
EXTT5=
EXTT6=
EXTT7=
EXTT8=
EXTT9=
EXTT10=
EXTT11=
EXTT12=
EXTT13=
EXTT14=
EXTT15=
EXTT16=
EXTT17=
PLAYORDER=
